<svg width="720" height="250.00000000000003" xmlns="http://www.w3.org/2000/svg">

 <g>
  <title>Layer 1</title>
  <text font-style="normal" transform="matrix(6.57274, 0, 0, 4.83305, -2017.92, -921.296)" font-weight="bold" xml:space="preserve" text-anchor="start" font-family="'Antonio'" font-size="16" id="svg_7" y="223.27854" x="349.44457" stroke-width="0" stroke="#000" fill="#000000">EF</text>
  <text stroke-width="0" font-weight="normal" transform="matrix(7.74817, 0, 0, 4.90794, -3058.85, -997.547)" xml:space="preserve" text-anchor="start" font-family="'Antonio'" font-size="16" id="svg_8" y="235.41754" x="448.99034" stroke="#000" fill="#0d6efd">ARS</text>
  <path id="svg_20" d="m52.22293,171.51575" opacity="NaN" stroke-width="0" stroke="#000" fill="#000000"/>
  <path id="svg_60" d="m80.70343,82.09861l22.05711,-47.79726" opacity="undefined" stroke="#0d6efd" fill="none"/>
  <path id="svg_61" d="m147.52545,62.42164l-42.5242,-27.92904" opacity="undefined" stroke="#0d6efd" fill="none"/>
  <path id="svg_62" d="m55.31755,62.06622l46.75222,-27.76486" opacity="undefined" stroke="#0d6efd" fill="none"/>
  <path id="svg_63" d="m75.86803,40.1342l26.20175,-5.83284" opacity="undefined" stroke="#0d6efd" fill="none"/>
  <path id="svg_64" d="m75.86803,40.13422l-21.11615,21.62537" opacity="undefined" stroke="#0d6efd" fill="none"/>
  <ellipse ry="1.37807" rx="1.37807" id="svg_37" cy="40.15587" cx="75.72056" stroke-width="0" stroke="#000" fill="#000000"/>
  <path id="svg_65" d="m36.66671,87.79751l18.08516,-26.03792" opacity="undefined" stroke="#0d6efd" fill="none"/>
  <path id="svg_66" d="m39.08441,116.98263l15.66746,-55.22304" opacity="undefined" stroke="#0d6efd" fill="none"/>
  <path id="svg_67" d="m36.66671,87.79751l2.19741,29.56922" opacity="undefined" stroke="#0d6efd" fill="none"/>
  <path id="svg_68" d="m36.6667,87.79752l-5.40107,57.89088" opacity="undefined" stroke="#0d6efd" fill="none"/>
  <path id="svg_69" d="m38.73902,116.80995l-7.47339,28.87844" opacity="undefined" stroke="#0d6efd" fill="none"/>
  <ellipse ry="1.25279" rx="1.25279" id="svg_35" cy="87.63675" cx="36.50811" stroke-width="0" stroke="#000" fill="#000000"/>
  <ellipse style="vector-effect: non-scaling-stroke;" ry="1.00224" rx="18.33938" id="svg_70" cy="-13.15861" cx="-65.4845" stroke-width="0" stroke="#000" fill="#000000"/>
  <path id="svg_72" d="m51.17292,173.45325l-20.16734,-26.98476" opacity="undefined" stroke="#0d6efd" fill="none"/>
  <path id="svg_73" d="m51.17292,173.45324l-11.79073,-57.12269" opacity="undefined" stroke="#0d6efd" fill="none"/>
  <ellipse ry="1.56836" rx="1.56836" id="svg_33" cy="146.45305" cx="31.06083" stroke-width="0" stroke="#000" fill="#000000"/>
  <path id="svg_74" d="m51.17292,172.58978l26.89252,-20.85716" opacity="undefined" stroke="#0d6efd" fill="none"/>
  <path id="svg_75" d="m127.15786,120.43647l-49.09241,31.2961" opacity="undefined" stroke="#0d6efd" fill="none"/>
  <path id="svg_76" d="m80.53074,81.92593l-2.46528,69.80664" opacity="undefined" stroke="#0d6efd" fill="none"/>
  <path id="svg_77" d="m80.53074,81.92593l-2.46528,69.80664" opacity="undefined" stroke="#0d6efd" fill="none"/>
  <path id="svg_78" d="m80.53074,81.92593l-2.46528,69.80664" opacity="undefined" stroke="#0d6efd" fill="none"/>
  <path id="svg_79" d="m39.08437,116.80992l38.9811,34.92264" opacity="undefined" stroke="#0d6efd" fill="none"/>
  <path id="svg_80" d="m39.08437,116.80996l41.05342,-34.15459" opacity="undefined" stroke="#0d6efd" fill="none"/>
  <path id="svg_81" d="m54.62675,62.92974l25.51104,19.72563" opacity="undefined" stroke="#0d6efd" fill="none"/>
  <path id="svg_83" d="m80.70343,82.09861l68.16616,-19.13021" opacity="undefined" stroke="#0d6efd" fill="none"/>
  <path id="svg_84" d="m161.35108,32.36299l-12.48151,30.60541" opacity="undefined" stroke="#0d6efd" fill="none"/>
  <path id="svg_85" d="m161.35106,32.36302l-57.89978,0.72952" opacity="undefined" stroke="#0d6efd" fill="none"/>
  <path id="svg_86" d="m161.35106,32.36302l-57.89978,0.72952" opacity="undefined" stroke="#0d6efd" fill="none"/>
  <path id="svg_87" d="m161.35106,32.36302l-57.89978,0.72952" opacity="undefined" stroke="#0d6efd" fill="none"/>
  <path id="svg_88" d="m161.35106,32.36304l-29.23273,-8.25063" opacity="undefined" stroke="#0d6efd" fill="none"/>
  <path id="svg_89" d="m102.63541,33.57189l29.48292,-9.45948" opacity="undefined" stroke="#0d6efd" fill="none"/>
  <path id="svg_90" d="m161.3511,32.36299l43.29835,38.03121" opacity="undefined" stroke="#0d6efd" fill="none"/>
  <path id="svg_91" d="m161.35111,32.36299l28.44675,12.47263" opacity="undefined" stroke="#0d6efd" fill="none"/>
  <path id="svg_92" d="m204.17899,69.31928l-14.38111,-24.48366" opacity="undefined" stroke="#0d6efd" fill="none"/>
  <path id="svg_93" d="m225.07484,95.39593l-35.27696,-50.56031" opacity="undefined" stroke="#0d6efd" fill="none"/>
  <path id="svg_94" d="m225.07484,95.39593l-21.11613,-26.21059" opacity="undefined" stroke="#0d6efd" fill="none"/>
  <path id="svg_95" d="m204.52434,69.66469l-55.65477,-6.69629" opacity="undefined" stroke="#0d6efd" fill="none"/>
  <path id="svg_96" d="m128.71211,118.36423l20.15748,-55.39577" opacity="undefined" stroke="#0d6efd" fill="none"/>
  <path id="svg_97" d="m128.71208,118.36423l-47.53818,-35.88145" opacity="undefined" stroke="#0d6efd" fill="none"/>
  <path id="svg_98" d="m129.57555,120.09116l58.84074,2.6291" opacity="undefined" stroke="#0d6efd" fill="none"/>
  <path id="svg_99" d="m148.22641,62.41191l40.18989,60.30811" opacity="undefined" stroke="#0d6efd" fill="none"/>
  <path id="svg_100" d="m204.52435,70.3558l-16.10806,52.36423" opacity="undefined" stroke="#0d6efd" fill="none"/>
  <path id="svg_101" d="m204.52434,70.3558l18.77596,54.26385" opacity="undefined" stroke="#0d6efd" fill="none"/>
  <path id="svg_102" d="m224.03867,94.70551l-0.73836,29.91412" opacity="undefined" stroke="#0d6efd" fill="none"/>
  <path id="svg_103" d="m188.46388,122.68178l34.83642,1.93784" opacity="undefined" stroke="#0d6efd" fill="none"/>
  <path id="svg_105" d="m199.86162,176.21604l23.43868,-51.59637" opacity="undefined" stroke="#0d6efd" fill="none"/>
  <path id="svg_106" d="m220.75747,157.21981l2.54283,-32.60014" opacity="undefined" stroke="#0d6efd" fill="none"/>
  <path id="svg_107" d="m199.86161,176.21604l-11.4453,-51.59637" opacity="undefined" stroke="#0d6efd" fill="none"/>
  <path id="svg_108" d="m144.42715,175.00719l43.12566,-50.7329" opacity="undefined" stroke="#0d6efd" fill="none"/>
  <path id="svg_109" d="m143.21829,175.35258l-14.55381,-54.35946" opacity="undefined" stroke="#0d6efd" fill="none"/>
  <path id="svg_110" d="m143.21833,175.35257l-65.15289,-23.102" opacity="undefined" stroke="#0d6efd" fill="none"/>
  <path id="svg_111" d="m143.21833,175.35257l-46.67473,29.22395" opacity="undefined" stroke="#0d6efd" fill="none"/>
  <path id="svg_112" d="m77.59496,151.86632l18.94864,52.7102" opacity="undefined" stroke="#0d6efd" fill="none"/>
  <path id="svg_114" d="m51.34562,173.28026l45.19798,31.29625" opacity="undefined" stroke="#0d6efd" fill="none"/>
  <path id="svg_115" d="m51.34562,173.28027l17.3944,24.04314" opacity="undefined" stroke="#0d6efd" fill="none"/>
  <path id="svg_116" d="m125.43095,219.04396l-56.69091,-21.72055" opacity="undefined" stroke="#0d6efd" fill="none"/>
  <path id="svg_117" d="m97.28198,204.71043l-28.54194,-7.38703" opacity="undefined" stroke="#0d6efd" fill="none"/>
  <path id="svg_118" d="m97.28199,204.71036l28.96486,14.7177" opacity="undefined" stroke="#0d6efd" fill="none"/>
  <path id="svg_119" d="m97.28198,204.71035l55.04152,6.25575" opacity="undefined" stroke="#0d6efd" fill="none"/>
  <path id="svg_120" d="m125.94903,219.56196l26.37447,-8.59588" opacity="undefined" stroke="#0d6efd" fill="none"/>
  <path id="svg_121" d="m184.3193,202.46534l-31.99579,8.50078" opacity="undefined" stroke="#0d6efd" fill="none"/>
  <path id="svg_122" d="m184.3193,202.46535l36.21798,-45.72474" opacity="undefined" stroke="#0d6efd" fill="none"/>
  <path style="vector-effect: non-scaling-stroke;" id="svg_123" d="m144.42715,175.00719l43.12566,-50.7329" opacity="undefined" stroke="#0d6efd" fill="none"/>
  <path id="svg_124" d="m143.21834,175.35258l57.11381,0.55692" opacity="undefined" stroke="#0d6efd" fill="none"/>
  <path id="svg_125" d="m143.73642,175.35228l8.93244,34.74859" opacity="undefined" stroke="#0d6efd" fill="none"/>
  <path id="svg_126" d="m200.20704,176.04306l-47.53822,34.05782" opacity="undefined" stroke="#0d6efd" fill="none"/>
  <path id="svg_127" d="m199.86162,176.21603l21.19367,-20.33893" opacity="undefined" stroke="#0d6efd" fill="none"/>
  <ellipse ry="2.88766" rx="2.88766" id="svg_14" cy="82.11718" cx="80.94306" stroke-width="0" stroke="#000" fill="#000000"/>
  <ellipse ry="2.88766" rx="2.88766" id="svg_16" cy="33.32969" cx="103.08773" stroke-width="0" stroke="#000" fill="#000000"/>
  <ellipse ry="2.36865" rx="2.36865" id="svg_17" cy="31.77265" cx="161.73652" stroke-width="0" stroke="#000" fill="#000000"/>
  <ellipse ry="1.37807" rx="1.37807" id="svg_29" cy="44.91649" cx="189.97536" stroke-width="0" stroke="#000" fill="#000000"/>
  <ellipse ry="1.69364" rx="1.69364" id="svg_30" cy="69.90735" cx="204.44275" stroke-width="0" stroke="#000" fill="#000000"/>
  <ellipse ry="1.77667" rx="1.77667" id="svg_39" cy="24.01125" cx="131.77453" stroke-width="0" stroke="#000" fill="#000000"/>
  <ellipse ry="2.33075" rx="2.33075" id="svg_10" cy="209.94796" cx="152.89864" stroke-width="0" stroke="#000" fill="#000000"/>
  <ellipse ry="4.61772" rx="4.61772" id="svg_11" cy="119.16637" cx="128.57663" stroke-width="0" stroke="#000" fill="#000000"/>
  <ellipse ry="3.25948" rx="3.25948" id="svg_12" cy="122.75324" cx="187.97764" stroke-width="0" stroke="#000" fill="#000000"/>
  <ellipse ry="2.88766" rx="2.88766" id="svg_15" cy="124.33047" cx="222.80738" stroke-width="0" stroke="#000" fill="#000000"/>
  <ellipse ry="2.88766" rx="2.88766" id="svg_21" cy="176.23206" cx="144.26299" stroke-width="0" stroke="#000" fill="#000000"/>
  <ellipse ry="1.00224" rx="1.00224" id="svg_23" cy="197.27991" cx="68.83019" stroke-width="0" stroke="#000" fill="#000000"/>
  <ellipse ry="1.56836" rx="1.56836" id="svg_24" cy="204.08157" cx="96.57721" stroke-width="0" stroke="#000" fill="#000000"/>
  <ellipse ry="1.50335" rx="1.50335" id="svg_25" cy="202.39267" cx="184.58834" stroke-width="0" stroke="#000" fill="#000000"/>
  <ellipse ry="1.44782" rx="1.44782" id="svg_26" cy="175.38785" cx="200.17852" stroke-width="0" stroke="#000" fill="#000000"/>
  <ellipse ry="1.25279" rx="1.25279" id="svg_27" cy="156.28986" cx="220.6688" stroke-width="0" stroke="#000" fill="#000000"/>
  <ellipse ry="1.44308" rx="1.44308" id="svg_31" cy="94.59213" cx="224.15526" stroke-width="0" stroke="#000" fill="#000000"/>
  <ellipse ry="1.19726" rx="1.19726" id="svg_71" cy="219.23028" cx="126.01393" stroke-width="0" stroke="#000" fill="#000000"/>
  <ellipse ry="1.87919" rx="1.87919" id="svg_32" cy="151.90508" cx="77.72503" stroke-width="0" stroke="#000" fill="#000000"/>
  <ellipse ry="2.88766" rx="2.88766" id="svg_13" cy="173.11796" cx="51.53216" stroke-width="0" stroke="#000" fill="#000000"/>
  <ellipse ry="1.93683" rx="1.93683" id="svg_28" cy="63.26492" cx="148.94136" stroke-width="0" stroke="#000" fill="#000000"/>
  <ellipse ry="1.32254" rx="1.32254" id="svg_36" cy="62.52061" cx="54.61809" stroke-width="0" stroke="#000" fill="#000000"/>
  <ellipse ry="1.94894" rx="1.94894" id="svg_34" cy="116.63656" cx="39.46877" stroke-width="0" stroke="#000" fill="#000000"/>
 </g>
</svg>