<svg width="833" height="289" viewBox="0 0 833 289" fill="none" xmlns="http://www.w3.org/2000/svg">
<path d="M67.1779 28.0428C68.285 28.0428 69.1825 27.1453 69.1825 26.0382C69.1825 24.9311 68.285 24.0336 67.1779 24.0336C66.0707 24.0336 65.1732 24.9311 65.1732 26.0382C65.1732 27.1453 66.0707 28.0428 67.1779 28.0428Z" fill="black"/>
<path d="M10.2015 96.8685C11.2102 96.8685 12.028 96.0507 12.028 95.042C12.028 94.0333 11.2102 93.2156 10.2015 93.2156C9.19279 93.2156 8.37506 94.0333 8.37506 95.042C8.37506 96.0507 9.19279 96.8685 10.2015 96.8685Z" fill="black"/>
<path d="M2.27193 182.779C3.52668 182.779 4.54385 181.762 4.54385 180.507C4.54385 179.252 3.52668 178.235 2.27193 178.235C1.01718 178.235 0 179.252 0 180.507C0 181.762 1.01718 182.779 2.27193 182.779Z" fill="black"/>
<path d="M74.4168 86.9786L106.469 17.5289" stroke="#0D6EFD" stroke-width="3"/>
<path d="M171.53 58.3793L109.72 17.7965" stroke="#0D6EFD" stroke-width="3"/>
<path d="M37.5313 57.8668L105.466 17.5289" stroke="#0D6EFD" stroke-width="3"/>
<path d="M67.4005 26.0382L105.466 17.5742" stroke="#0D6EFD" stroke-width="3"/>
<path d="M67.4005 26.0382L36.7072 57.4665" stroke="#0D6EFD" stroke-width="3"/>
<path d="M10.4242 95.265L36.7072 57.3995" stroke="#0D6EFD" stroke-width="3"/>
<path d="M13.9432 137.674L36.707 57.4885" stroke="#0D6EFD" stroke-width="3"/>
<path d="M10.4242 95.2648L13.6316 138.231" stroke="#0D6EFD" stroke-width="3"/>
<path d="M10.4242 95.2648L2.5838 179.371" stroke="#0D6EFD" stroke-width="3"/>
<path d="M13.4534 137.407L2.5838 179.371" stroke="#0D6EFD" stroke-width="3"/>
<path d="M31.5174 219.82L2.20511 180.596" stroke="#0D6EFD" stroke-width="3"/>
<path d="M31.5175 219.82L14.389 136.806" stroke="#0D6EFD" stroke-width="3"/>
<path d="M31.5174 218.461L70.5856 188.169" stroke="#0D6EFD" stroke-width="3"/>
<path d="M141.929 142.686L70.6524 188.169" stroke="#0D6EFD" stroke-width="3"/>
<path d="M74.1719 86.734L70.5858 188.169" stroke="#0D6EFD" stroke-width="3"/>
<path d="M74.1719 86.734L70.5858 188.169" stroke="#0D6EFD" stroke-width="3"/>
<path d="M74.1719 86.734L70.5858 188.169" stroke="#0D6EFD" stroke-width="3"/>
<path d="M13.9432 137.407L70.5854 188.169" stroke="#0D6EFD" stroke-width="3"/>
<path d="M13.9432 137.407L73.5924 87.7812" stroke="#0D6EFD" stroke-width="3"/>
<path d="M36.529 59.1144L73.5925 87.7807" stroke="#0D6EFD" stroke-width="3"/>
<path d="M74.4168 86.9795L173.468 59.1819" stroke="#0D6EFD" stroke-width="3"/>
<path d="M191.621 14.7002L173.468 59.2477" stroke="#0D6EFD" stroke-width="3"/>
<path d="M191.622 14.7002L107.471 15.7694" stroke="#0D6EFD" stroke-width="3"/>
<path d="M191.622 14.7002L107.471 15.7694" stroke="#0D6EFD" stroke-width="3"/>
<path d="M191.622 14.7002L107.471 15.7694" stroke="#0D6EFD" stroke-width="3"/>
<path d="M191.621 14.7008L149.123 2.71753" stroke="#0D6EFD" stroke-width="3"/>
<path d="M106.291 16.4605L149.123 2.71753" stroke="#0D6EFD" stroke-width="3"/>
<path d="M191.621 14.7002L254.523 69.9615" stroke="#0D6EFD" stroke-width="3"/>
<path d="M191.621 14.7002L233.006 32.831" stroke="#0D6EFD" stroke-width="3"/>
<path d="M253.854 68.3586L232.939 32.7206" stroke="#0D6EFD" stroke-width="3"/>
<path d="M284.236 106.224L233.006 32.7206" stroke="#0D6EFD" stroke-width="3"/>
<path d="M284.236 106.224L253.542 68.158" stroke="#0D6EFD" stroke-width="3"/>
<path d="M254.344 68.9155L173.468 59.1819" stroke="#0D6EFD" stroke-width="3"/>
<path d="M144.178 139.634L173.468 59.1366" stroke="#0D6EFD" stroke-width="3"/>
<path d="M144.178 139.634L75.1293 87.4915" stroke="#0D6EFD" stroke-width="3"/>
<path d="M145.448 142.196L230.935 146.004" stroke="#0D6EFD" stroke-width="3"/>
<path d="M172.532 58.3793L230.934 146.004" stroke="#0D6EFD" stroke-width="3"/>
<path d="M254.344 69.9172L230.934 146.004" stroke="#0D6EFD" stroke-width="3"/>
<path d="M254.344 69.9172L281.63 148.766" stroke="#0D6EFD" stroke-width="3"/>
<path d="M282.699 105.288L281.63 148.766" stroke="#0D6EFD" stroke-width="3"/>
<path d="M231.001 145.96L281.63 148.767" stroke="#0D6EFD" stroke-width="3"/>
<path d="M247.573 223.74L281.63 148.767" stroke="#0D6EFD" stroke-width="3"/>
<path d="M277.932 196.143L281.63 148.767" stroke="#0D6EFD" stroke-width="3"/>
<path d="M247.573 223.74L230.934 148.767" stroke="#0D6EFD" stroke-width="3"/>
<path d="M167.031 222.048L229.687 148.322" stroke="#0D6EFD" stroke-width="3"/>
<path d="M165.271 222.492L144.111 143.487" stroke="#0D6EFD" stroke-width="3"/>
<path d="M165.272 222.493L70.5858 188.927" stroke="#0D6EFD" stroke-width="3"/>
<path d="M165.272 222.493L97.448 264.946" stroke="#0D6EFD" stroke-width="3"/>
<path d="M69.895 188.369L97.4478 264.946" stroke="#0D6EFD" stroke-width="3"/>
<path d="M31.7623 219.486L97.4478 264.947" stroke="#0D6EFD" stroke-width="3"/>
<path d="M31.7623 219.486L57.0431 254.411" stroke="#0D6EFD" stroke-width="3"/>
<path d="M139.456 285.973L57.0431 254.411" stroke="#0D6EFD" stroke-width="3"/>
<path d="M98.5169 265.147L57.0431 254.411" stroke="#0D6EFD" stroke-width="3"/>
<path d="M98.517 265.147L140.592 286.53" stroke="#0D6EFD" stroke-width="3"/>
<path d="M98.517 265.147L178.502 274.235" stroke="#0D6EFD" stroke-width="3"/>
<path d="M140.169 286.641L178.502 274.146" stroke="#0D6EFD" stroke-width="3"/>
<path d="M224.987 261.895L178.502 274.234" stroke="#0D6EFD" stroke-width="3"/>
<path d="M224.988 261.895L277.554 195.453" stroke="#0D6EFD" stroke-width="3"/>
<path d="M167.031 222.048L229.687 148.322" stroke="#0D6EFD" stroke-width="3"/>
<path d="M165.272 222.493L248.264 223.294" stroke="#0D6EFD" stroke-width="3"/>
<path d="M166.006 222.493L178.992 272.987" stroke="#0D6EFD" stroke-width="3"/>
<path d="M248.085 223.495L179.037 272.988" stroke="#0D6EFD" stroke-width="3"/>
<path d="M247.573 223.74L278.378 194.183" stroke="#0D6EFD" stroke-width="3"/>
<path d="M74.7732 91.2109C77.0859 91.2109 78.9607 89.3361 78.9607 87.0234C78.9607 84.7107 77.0859 82.8359 74.7732 82.8359C72.4605 82.8359 70.5858 84.7107 70.5858 87.0234C70.5858 89.3361 72.4605 91.2109 74.7732 91.2109Z" fill="black"/>
<path d="M106.936 20.3139C109.249 20.3139 111.124 18.4391 111.124 16.1264C111.124 13.8138 109.249 11.939 106.936 11.939C104.624 11.939 102.749 13.8138 102.749 16.1264C102.749 18.4391 104.624 20.3139 106.936 20.3139Z" fill="black"/>
<path d="M192.156 17.3068C194.063 17.3068 195.608 15.7611 195.608 13.8544C195.608 11.9477 194.063 10.402 192.156 10.402C190.249 10.402 188.703 11.9477 188.703 13.8544C188.703 15.7611 190.249 17.3068 192.156 17.3068Z" fill="black"/>
<path d="M233.206 34.9697C234.314 34.9697 235.211 34.0722 235.211 32.9651C235.211 31.858 234.314 30.9604 233.206 30.9604C232.099 30.9604 231.202 31.858 231.202 32.9651C231.202 34.0722 232.099 34.9697 233.206 34.9697Z" fill="black"/>
<path d="M254.233 71.722C255.586 71.722 256.683 70.6251 256.683 69.2719C256.683 67.9187 255.586 66.8218 254.233 66.8218C252.88 66.8218 251.783 67.9187 251.783 69.2719C251.783 70.6251 252.88 71.722 254.233 71.722Z" fill="black"/>
<path d="M148.633 5.16752C150.06 5.16752 151.217 4.01073 151.217 2.58376C151.217 1.15679 150.06 0 148.633 0C147.206 0 146.049 1.15679 146.049 2.58376C146.049 4.01073 147.206 5.16752 148.633 5.16752Z" fill="black"/>
<path d="M179.326 276.15C181.196 276.15 182.712 274.635 182.712 272.765C182.712 270.895 181.196 269.379 179.326 269.379C177.457 269.379 175.941 270.895 175.941 272.765C175.941 274.635 177.457 276.15 179.326 276.15Z" fill="black"/>
<path d="M143.978 147.564C147.68 147.564 150.682 144.562 150.682 140.859C150.682 137.156 147.68 134.155 143.978 134.155C140.275 134.155 137.273 137.156 137.273 140.859C137.273 144.562 140.275 147.564 143.978 147.564Z" fill="black"/>
<path d="M230.289 150.816C232.909 150.816 235.033 148.692 235.033 146.071C235.033 143.451 232.909 141.327 230.289 141.327C227.669 141.327 225.544 143.451 225.544 146.071C225.544 148.692 227.669 150.816 230.289 150.816Z" fill="black"/>
<path d="M280.917 152.553C283.23 152.553 285.105 150.678 285.105 148.366C285.105 146.053 283.23 144.178 280.917 144.178C278.604 144.178 276.73 146.053 276.73 148.366C276.73 150.678 278.604 152.553 280.917 152.553Z" fill="black"/>
<path d="M166.764 227.972C169.077 227.972 170.951 226.097 170.951 223.785C170.951 221.472 169.077 219.597 166.764 219.597C164.451 219.597 162.576 221.472 162.576 223.785C162.576 226.097 164.451 227.972 166.764 227.972Z" fill="black"/>
<path d="M57.1547 255.814C57.9543 255.814 58.6025 255.166 58.6025 254.366C58.6025 253.567 57.9543 252.919 57.1547 252.919C56.3551 252.919 55.7069 253.567 55.7069 254.366C55.7069 255.166 56.3551 255.814 57.1547 255.814Z" fill="black"/>
<path d="M97.4922 266.506C98.7469 266.506 99.7641 265.489 99.7641 264.234C99.7641 262.979 98.7469 261.962 97.4922 261.962C96.2374 261.962 95.2202 262.979 95.2202 264.234C95.2202 265.489 96.2374 266.506 97.4922 266.506Z" fill="black"/>
<path d="M225.366 263.967C226.572 263.967 227.549 262.99 227.549 261.784C227.549 260.578 226.572 259.601 225.366 259.601C224.161 259.601 223.183 260.578 223.183 261.784C223.183 262.99 224.161 263.967 225.366 263.967Z" fill="black"/>
<path d="M248.018 224.653C249.175 224.653 250.112 223.716 250.112 222.559C250.112 221.403 249.175 220.466 248.018 220.466C246.862 220.466 245.925 221.403 245.925 222.559C245.925 223.716 246.862 224.653 248.018 224.653Z" fill="black"/>
<path d="M277.799 196.633C278.807 196.633 279.625 195.815 279.625 194.807C279.625 193.798 278.807 192.98 277.799 192.98C276.79 192.98 275.972 193.798 275.972 194.807C275.972 195.815 276.79 196.633 277.799 196.633Z" fill="black"/>
<path d="M282.877 107.249C284.033 107.249 284.971 106.311 284.971 105.155C284.971 103.998 284.033 103.061 282.877 103.061C281.721 103.061 280.783 103.998 280.783 105.155C280.783 106.311 281.721 107.249 282.877 107.249Z" fill="black"/>
<path d="M140.258 288C141.217 288 141.995 287.222 141.995 286.263C141.995 285.303 141.217 284.525 140.258 284.525C139.298 284.525 138.521 285.303 138.521 286.263C138.521 287.222 139.298 288 140.258 288Z" fill="black"/>
<path d="M70.0958 191.175C71.6088 191.175 72.8354 189.949 72.8354 188.436C72.8354 186.923 71.6088 185.696 70.0958 185.696C68.5827 185.696 67.3561 186.923 67.3561 188.436C67.3561 189.949 68.5827 191.175 70.0958 191.175Z" fill="black"/>
<path d="M32.0298 223.428C34.3425 223.428 36.2173 221.554 36.2173 219.241C36.2173 216.928 34.3425 215.054 32.0298 215.054C29.7171 215.054 27.8423 216.928 27.8423 219.241C27.8423 221.554 29.7171 223.428 32.0298 223.428Z" fill="black"/>
<path d="M173.58 62.4338C175.13 62.4338 176.386 61.1773 176.386 59.6273C176.386 58.0773 175.13 56.8208 173.58 56.8208C172.03 56.8208 170.773 58.0773 170.773 59.6273C170.773 61.1773 172.03 62.4338 173.58 62.4338Z" fill="black"/>
<path d="M36.5066 60.451C37.5645 60.451 38.4222 59.5933 38.4222 58.5354C38.4222 57.4775 37.5645 56.6199 36.5066 56.6199C35.4487 56.6199 34.5911 57.4775 34.5911 58.5354C34.5911 59.5933 35.4487 60.451 36.5066 60.451Z" fill="black"/>
<path d="M14.5002 140.013C16.0624 140.013 17.3289 138.747 17.3289 137.185C17.3289 135.622 16.0624 134.356 14.5002 134.356C12.9379 134.356 11.6714 135.622 11.6714 137.185C11.6714 138.747 12.9379 140.013 14.5002 140.013Z" fill="black"/>
<path d="M379.291 239.766V39.2863H439.207V58.8786H402.87V127.452H437.271V147.044H402.87V220.174H439.663V239.766H379.291Z" fill="black"/>
<path d="M465.406 239.766V39.2863H525.778V58.9925H488.872V122.326H523.5V142.26H488.872V239.766H465.406Z" fill="black"/>
<path d="M540.308 239.766L570.722 39.2859H599.085L632.232 239.766H610.02L604.325 201.492H567.988L562.748 239.766H540.308ZM570.608 182.356H601.363L585.53 76.4202H585.188L570.608 182.356Z" fill="#0D6EFD"/>
<path d="M654.445 239.766V39.2859H696.477C707.109 39.2859 714.968 41.1844 720.056 44.9813C725.144 48.7024 728.447 54.3598 729.966 61.9538C731.561 69.4718 732.358 78.9642 732.358 90.431C732.358 102.809 731.105 112.643 728.599 119.933C726.093 127.224 721.233 131.932 714.019 134.058C717.664 134.666 720.664 136.222 723.018 138.728C725.448 141.234 727.346 145.145 728.713 150.461C730.08 155.777 731.029 162.915 731.561 171.876C732.168 180.761 732.472 191.962 732.472 205.479C732.472 206.77 732.472 208.63 732.472 211.061C732.472 213.491 732.51 216.148 732.586 219.034C732.662 221.92 732.738 224.768 732.814 227.577C732.966 230.387 733.156 232.893 733.384 235.095C733.611 237.222 733.915 238.778 734.295 239.766H710.83C710.526 239.082 710.26 237.563 710.032 235.209C709.804 232.855 709.615 229.742 709.463 225.869C709.311 221.996 709.197 217.401 709.121 212.086C709.045 206.694 709.007 200.695 709.007 194.088C709.007 187.405 709.007 180.115 709.007 172.218C709.007 164.624 708.665 158.852 707.982 154.903C707.374 150.879 705.856 148.107 703.425 146.588C701.071 144.993 697.274 144.044 692.035 143.74L678.024 142.943V239.766H654.445ZM678.024 125.629H693.06C697.388 125.629 700.692 124.794 702.97 123.123C705.324 121.376 706.919 117.959 707.754 112.871C708.589 107.707 709.007 99.9994 709.007 89.7476V88.3806C709.007 79.8754 708.589 73.4586 707.754 69.13C706.995 64.7256 705.476 61.7639 703.198 60.2451C700.919 58.7264 697.464 57.967 692.832 57.967H678.024V125.629Z" fill="#0D6EFD"/>
<path d="M793.869 242.044C785.744 242.044 779.137 240.601 774.049 237.715C768.961 234.754 765.05 230.577 762.316 225.185C759.583 219.794 757.684 213.453 756.621 206.162C755.634 198.796 755.14 190.671 755.14 181.786V162.308H778.036V182.697C778.036 196.746 779.023 206.808 780.997 212.883C783.048 218.882 787.414 221.882 794.097 221.882C798.729 221.882 802.109 220.819 804.235 218.692C806.437 216.49 807.842 212.997 808.449 208.213C809.057 203.429 809.361 197.126 809.361 189.304C809.361 180.343 807.766 172.635 804.577 166.18C801.463 159.726 796.945 153.537 791.021 147.613L777.922 134.514C774.125 130.641 770.404 126.426 766.759 121.87C763.114 117.238 760.076 111.998 757.646 106.15C755.292 100.303 754.115 93.6205 754.115 86.1025C754.115 76.0025 755.178 67.2695 757.304 59.9034C759.431 52.5373 763.304 46.8419 768.923 42.8171C774.543 38.7923 782.516 36.7799 792.844 36.7799C800.969 36.7799 807.462 38.1848 812.322 40.9945C817.258 43.8043 820.942 47.8291 823.372 53.0689C825.878 58.2328 827.51 64.3838 828.27 71.5221C829.105 78.6604 829.523 86.5581 829.523 95.2152V107.062H806.969V93.6205C806.969 85.495 806.627 78.7364 805.944 73.3447C805.336 67.877 804.045 63.7763 802.071 61.0425C800.096 58.3087 797.021 56.9418 792.844 56.9418C789.047 56.9418 785.934 57.891 783.503 59.7895C781.149 61.6121 779.441 64.4598 778.378 68.3327C777.314 72.2056 776.783 77.1796 776.783 83.2547C776.783 88.5705 777.428 92.975 778.719 96.4682C780.01 99.8854 781.947 103.075 784.529 106.037C787.187 108.998 790.414 112.491 794.211 116.516L807.88 130.983C815.094 138.501 820.979 146.93 825.536 156.27C830.168 165.535 832.484 176.318 832.484 188.62C832.484 199.708 831.383 209.238 829.181 217.212C827.055 225.185 823.22 231.336 817.676 235.665C812.133 239.917 804.197 242.044 793.869 242.044Z" fill="#0D6EFD"/>
</svg>
